<svg width="80" height="80" viewBox="0 0 80 80" fill="none" xmlns="http://www.w3.org/2000/svg">
<rect x="2" y="2" width="32" height="39" rx="10" fill="#D9D9D9" stroke="black" stroke-width="4"/>
<rect x="2" y="12" width="76" height="66" rx="10" fill="#D9D9D9" stroke="black" stroke-width="4"/>
<path d="M33.1157 66.1371L33.2912 68.1138L33.1157 66.1371ZM27.8412 63.9449L29.2992 62.5706L27.8412 63.9449ZM28.5737 64.6696L27.2352 66.1572L28.5737 64.6696ZM34.792 65.8613L35.238 67.7956L34.792 65.8613ZM40.3951 59.7722L42.3964 59.9983L40.3951 59.7722ZM40.4368 55.2949L38.4217 55.3006L38.4215 58.3498L40.4366 58.3441L42.4517 58.3383L42.452 55.2892L40.4368 55.2949ZM38.2377 63.7344L36.7838 62.3644L36.594 62.5597L38.048 63.9297L39.5019 65.2997L39.6916 65.1044L38.2377 63.7344ZM27.8412 63.9449L29.2992 62.5706L27.8952 61.1253L26.4372 62.4997L24.9793 63.874L26.3833 65.3193L27.8412 63.9449ZM34.1438 65.9812L33.8037 64.0259C33.25 64.1209 33.0862 64.1474 32.9402 64.1604L33.1157 66.1371L33.2912 68.1138C33.6417 68.0826 33.9978 68.0199 34.4839 67.9365L34.1438 65.9812ZM27.8412 63.9449L26.3833 65.3193C26.7238 65.6698 26.9722 65.9278 27.2352 66.1572L28.5737 64.6696L29.9122 63.1821C29.8027 63.0866 29.687 62.9697 29.2992 62.5706L27.8412 63.9449ZM33.1157 66.1371L32.9402 64.1604C31.836 64.2587 30.7408 63.9048 29.9122 63.1821L28.5737 64.6696L27.2352 66.1572C28.8923 67.6027 31.0828 68.3104 33.2912 68.1138L33.1157 66.1371ZM38.048 63.9297L36.594 62.5597C36.3499 62.811 36.278 62.884 36.2082 62.9486L37.5853 64.3935L38.9624 65.8385C39.1292 65.6843 39.2868 65.521 39.5019 65.2997L38.048 63.9297ZM34.1438 65.9812L34.4839 67.9365C34.79 67.884 35.0152 67.846 35.238 67.7956L34.792 65.8613L34.346 63.9271C34.2528 63.9482 34.1512 63.9663 33.8037 64.0259L34.1438 65.9812ZM37.5853 64.3935L36.2082 62.9486C35.6861 63.4314 35.0434 63.7692 34.346 63.9271L34.792 65.8613L35.238 67.7956C36.6328 67.4797 37.9182 66.8043 38.9624 65.8385L37.5853 64.3935ZM40.4366 58.3441L38.4215 58.3498C38.4214 59.1171 38.4182 59.342 38.3938 59.5462L40.3951 59.7722L42.3964 59.9983C42.4548 59.5094 42.4516 59.0132 42.4517 58.3383L40.4366 58.3441ZM38.2377 63.7344L39.6916 65.1044C40.1661 64.6161 40.5172 64.2593 40.8187 63.866L39.2118 62.673L37.6049 61.48C37.479 61.6443 37.3232 61.8092 36.7838 62.3644L38.2377 63.7344ZM40.3951 59.7722L38.3938 59.5462C38.31 60.2479 38.0377 60.9155 37.6049 61.48L39.2118 62.673L40.8187 63.866C41.6842 62.737 42.2288 61.4018 42.3964 59.9983L40.3951 59.7722Z" fill="black"/>
<path d="M46.719 65.9802L47.0705 64.0248L46.719 65.9802ZM47.7544 66.137L47.9401 64.1601L47.7544 66.137ZM42.838 63.9422L44.296 62.5679L42.838 63.9422ZM43.2993 64.4047L44.6807 62.9556L43.2993 64.4047ZM46.0715 65.8604L45.6142 67.7947L46.0715 65.8604ZM40.4813 59.8013L38.4807 60.0455L40.4813 59.8013ZM42.6372 63.7354L41.1792 65.1098L42.6372 63.7354ZM41.6394 62.6459L40.0249 63.8383L41.6394 62.6459ZM40.4375 54.2652L38.4224 54.2711L38.4224 58.3385L40.4375 58.3326L42.4526 58.3267L42.4526 54.2593L40.4375 54.2652ZM42.6372 63.7354L41.1792 65.1098L41.3801 65.3166L42.838 63.9422L44.296 62.5679L44.0951 62.3611L42.6372 63.7354ZM53.0521 63.9266L54.5061 65.2966L55.8915 63.8704L54.4375 62.5005L52.9835 61.1306L51.5981 62.5567L53.0521 63.9266ZM46.719 65.9802L46.3675 67.9355C46.857 68.0195 47.2156 68.0827 47.5686 68.1138L47.7544 66.137L47.9401 64.1601C47.7931 64.1471 47.6281 64.1205 47.0705 64.0248L46.719 65.9802ZM53.0521 63.9266L51.5981 62.5567C51.206 62.9603 51.089 63.0784 50.9783 63.175L52.3116 64.6593L53.6449 66.1436C53.9108 65.9117 54.1619 65.6509 54.5061 65.2966L53.0521 63.9266ZM47.7544 66.137L47.5686 68.1138C49.7807 68.3091 51.9792 67.5962 53.6449 66.1436L52.3116 64.6593L50.9783 63.175C50.1454 63.9013 49.0462 64.2577 47.9401 64.1601L47.7544 66.137ZM42.838 63.9422L41.3801 65.3166C41.5944 65.5372 41.7516 65.7 41.918 65.8538L43.2993 64.4047L44.6807 62.9556C44.6111 62.8913 44.5394 62.8184 44.296 62.5679L42.838 63.9422ZM46.719 65.9802L47.0705 64.0248C46.7234 63.9652 46.6219 63.9472 46.5288 63.9261L46.0715 65.8604L45.6142 67.7947C45.8367 67.8451 46.0617 67.8831 46.3675 67.9355L46.719 65.9802ZM43.2993 64.4047L41.918 65.8538C42.9536 66.8112 44.2289 67.4808 45.6142 67.7947L46.0715 65.8604L46.5288 63.9261C45.8361 63.7691 45.1985 63.4343 44.6807 62.9556L43.2993 64.4047ZM40.4375 58.3326L38.4224 58.3385C38.4224 59.0326 38.419 59.5431 38.4807 60.0455L40.4813 59.8013L42.4818 59.5571C42.456 59.3472 42.4526 59.1159 42.4526 58.3267L40.4375 58.3326ZM42.6372 63.7354L44.0951 62.3611C43.542 61.7917 43.3823 61.6225 43.2539 61.4534L41.6394 62.6459L40.0249 63.8383C40.3325 64.243 40.6927 64.6089 41.1792 65.1098L42.6372 63.7354ZM40.4813 59.8013L38.4807 60.0455C38.6499 61.4219 39.1822 62.7295 40.0249 63.8383L41.6394 62.6459L43.2539 61.4534C42.8325 60.8991 42.5663 60.2452 42.4818 59.5571L40.4813 59.8013Z" fill="black"/>
<path d="M52.8184 29.5588L44.8184 35.7353L52.937 41.3971" stroke="black" stroke-width="4"/>
<path d="M26.8184 29.5588L34.8184 35.7353L26.8184 41.9118" stroke="black" stroke-width="4"/>
<rect x="31.4355" y="47.0588" width="17" height="8.23529" fill="black"/>
<rect x="39.998" y="49.1177" width="6" height="1.02941" fill="#D0D0D0"/>
</svg>
