<svg width="31" height="42" viewBox="0 0 31 42" fill="none" xmlns="http://www.w3.org/2000/svg">
<path d="M8.13721 38.1613L8.3127 40.138L8.13721 38.1613ZM2.86272 35.9691L4.32067 34.5947L2.86272 35.9691ZM3.59517 36.6938L2.25665 38.1814L3.59517 36.6938ZM9.81351 37.8855L10.2595 39.8197L9.81351 37.8855ZM15.4166 31.7964L17.4179 32.0224L15.4166 31.7964ZM15.4583 27.3191L13.4432 27.3248L13.443 30.3739L15.4581 30.3682L17.4732 30.3625L17.4734 27.3134L15.4583 27.3191ZM13.2592 35.7586L11.8053 34.3885L11.6155 34.5838L13.0694 35.9539L14.5234 37.3239L14.7131 37.1286L13.2592 35.7586ZM2.86272 35.9691L4.32067 34.5947L2.91664 33.1495L1.45869 34.5238L0.000745142 35.8982L1.40478 37.3435L2.86272 35.9691ZM9.1653 38.0054L8.82519 36.0501C8.27152 36.1451 8.10767 36.1716 7.96172 36.1846L8.13721 38.1613L8.3127 40.138C8.6632 40.1068 9.01926 40.0441 9.5054 39.9607L9.1653 38.0054ZM2.86272 35.9691L1.40478 37.3435C1.74525 37.6939 1.99364 37.9519 2.25665 38.1814L3.59517 36.6938L4.93369 35.2063C4.82417 35.1107 4.70844 34.9939 4.32067 34.5947L2.86272 35.9691ZM8.13721 38.1613L7.96172 36.1846C6.8575 36.2829 5.76227 35.929 4.93369 35.2063L3.59517 36.6938L2.25665 38.1814C3.91379 39.6269 6.10426 40.3346 8.3127 40.138L8.13721 38.1613ZM13.0694 35.9539L11.6155 34.5838C11.3714 34.8351 11.2995 34.9082 11.2297 34.9727L12.6068 36.4177L13.9839 37.8627C14.1507 37.7084 14.3083 37.5452 14.5234 37.3239L13.0694 35.9539ZM9.1653 38.0054L9.5054 39.9607C9.81149 39.9082 10.0367 39.8702 10.2595 39.8197L9.81351 37.8855L9.36751 35.9513C9.27432 35.9724 9.17273 35.9905 8.82519 36.0501L9.1653 38.0054ZM12.6068 36.4177L11.2297 34.9727C10.7076 35.4556 10.0649 35.7933 9.36751 35.9513L9.81351 37.8855L10.2595 39.8197C11.6543 39.5039 12.9397 38.8284 13.9839 37.8627L12.6068 36.4177ZM15.4581 30.3682L13.443 30.3739C13.4429 31.1412 13.4397 31.3662 13.4153 31.5703L15.4166 31.7964L17.4179 32.0224C17.4763 31.5336 17.4731 31.0374 17.4732 30.3625L15.4581 30.3682ZM13.2592 35.7586L14.7131 37.1286C15.1876 36.6403 15.5387 36.2834 15.8402 35.8902L14.2333 34.6972L12.6264 33.5042C12.5005 33.6685 12.3447 33.8334 11.8053 34.3885L13.2592 35.7586ZM15.4166 31.7964L13.4153 31.5703C13.3315 32.2721 13.0592 32.9397 12.6264 33.5042L14.2333 34.6972L15.8402 35.8902C16.7057 34.7611 17.2503 33.426 17.4179 32.0224L15.4166 31.7964Z" fill="black"/>
<path d="M21.7405 38.0043L22.092 36.049L21.7405 38.0043ZM22.7759 38.1611L22.9616 36.1843L22.7759 38.1611ZM17.8595 35.9664L19.3175 34.592L17.8595 35.9664ZM18.3208 36.4289L19.7022 34.9798L18.3208 36.4289ZM21.093 37.8846L20.6357 39.8189L21.093 37.8846ZM15.5027 31.8254L13.5022 32.0697L15.5027 31.8254ZM17.6586 35.7596L16.2007 37.1339L17.6586 35.7596ZM16.6609 34.67L15.0464 35.8624L16.6609 34.67ZM15.459 26.2894L13.4439 26.2952L13.4439 30.3626L15.459 30.3567L17.4741 30.3509L17.4741 26.2835L15.459 26.2894ZM17.6586 35.7596L16.2007 37.1339L16.4015 37.3407L17.8595 35.9664L19.3175 34.592L19.1166 34.3852L17.6586 35.7596ZM28.0736 35.9508L29.5276 37.3207L30.913 35.8946L29.459 34.5247L28.005 33.1547L26.6195 34.5809L28.0736 35.9508ZM21.7405 38.0043L21.389 39.9597C21.8785 40.0437 22.2371 40.1068 22.5901 40.138L22.7759 38.1611L22.9616 36.1843C22.8146 36.1713 22.6496 36.1446 22.092 36.049L21.7405 38.0043ZM28.0736 35.9508L26.6195 34.5809C26.2275 34.9845 26.1105 35.1026 25.9998 35.1992L27.3331 36.6834L28.6664 38.1677C28.9323 37.9359 29.1834 37.6751 29.5276 37.3207L28.0736 35.9508ZM22.7759 38.1611L22.5901 40.138C24.8022 40.3332 27.0007 39.6204 28.6664 38.1677L27.3331 36.6834L25.9998 35.1992C25.1669 35.9255 24.0677 36.2819 22.9616 36.1843L22.7759 38.1611ZM17.8595 35.9664L16.4015 37.3407C16.6159 37.5614 16.7731 37.7241 16.9395 37.8779L18.3208 36.4289L19.7022 34.9798C19.6326 34.9154 19.5609 34.8426 19.3175 34.592L17.8595 35.9664ZM21.7405 38.0043L22.092 36.049C21.7448 35.9894 21.6434 35.9713 21.5503 35.9502L21.093 37.8846L20.6357 39.8189C20.8582 39.8693 21.0832 39.9072 21.389 39.9597L21.7405 38.0043ZM18.3208 36.4289L16.9395 37.8779C17.9751 38.8353 19.2503 39.505 20.6357 39.8189L21.093 37.8846L21.5503 35.9502C20.8576 35.7933 20.22 35.4585 19.7022 34.9798L18.3208 36.4289ZM15.459 30.3567L13.4439 30.3626C13.4439 31.0568 13.4405 31.5672 13.5022 32.0697L15.5027 31.8254L17.5033 31.5812C17.4775 31.3714 17.4741 31.1401 17.4741 30.3509L15.459 30.3567ZM17.6586 35.7596L19.1166 34.3852C18.5635 33.8158 18.4038 33.6467 18.2753 33.4776L16.6609 34.67L15.0464 35.8624C15.354 36.2672 15.7141 36.6331 16.2007 37.1339L17.6586 35.7596ZM15.5027 31.8254L13.5022 32.0697C13.6713 33.446 14.2037 34.7537 15.0464 35.8624L16.6609 34.67L18.2753 33.4776C17.854 32.9232 17.5878 32.2694 17.5033 31.5812L15.5027 31.8254Z" fill="black"/>
<path d="M27.8398 1.58301L19.8398 7.75948L27.9585 13.4212" stroke="black" stroke-width="4"/>
<path d="M1.83984 1.58301L9.83984 7.75948L1.83984 13.9359" stroke="black" stroke-width="4"/>
<rect x="6.45703" y="19.083" width="17" height="8.23529" fill="black"/>
<rect x="15.0195" y="21.1418" width="6" height="1.02941" fill="#D0D0D0"/>
</svg>
