<svg width="1024" height="1024" viewBox="0 0 128 128" fill="none" xmlns="http://www.w3.org/2000/svg">
  <g transform="translate(10 10) scale(0.84375)">
  <rect width="128" height="128" rx="28" fill="#EEE7DD"/>
  <g transform="translate(24.4 29.4) scale(0.88)" color="#70685E">
    <rect x="2.5" y="12.5" width="85" height="64" rx="9.5" stroke="currentColor" stroke-width="5"/>
    <path d="M45.6471 56.4981L45.6468 60.7145C45.6466 62.2434 45.0367 63.7162 43.9451 64.8237L42.7046 66.0823C41.7999 67.0001 40.6171 67.613 39.3307 67.8306L37.9969 68.0562C36.003 68.3934 33.9724 67.7476 32.5781 66.3328L30.4722 64.1961" stroke="currentColor" stroke-width="5"/>
    <path d="M45.647 55.3977L45.647 60.7325C45.647 62.2503 46.2479 63.7067 47.3254 64.8L48.6104 66.1039C49.5021 67.0087 50.6688 67.6125 51.9415 67.8277L53.2821 68.0544C55.2841 68.393 57.3336 67.7367 58.7442 66.3054L60.8223 64.1968" stroke="currentColor" stroke-width="5"/>
    <path d="M59.0681 29L50.3965 35.5993L59.1967 41.6487" stroke="currentColor" stroke-width="5"/>
    <path d="M30.885 29L39.5566 35.5993L30.885 42.1987" stroke="currentColor" stroke-width="5"/>
    <rect x="35.8926" y="47.6982" width="18.4271" height="8.79912" fill="currentColor"/>
    <rect x="45.1738" y="49.8977" width="6.5037" height="1.09989" fill="#EEE7DD"/>
    <mask id="puppyone-mark-ear" fill="white">
      <path d="M37 0C43.6274 6.44258e-08 49 5.37258 49 12V15H12C5.37258 15 0 20.3726 0 27V12C3.22139e-07 5.37258 5.37258 6.44258e-08 12 0H37Z"/>
    </mask>
    <path d="M37 0V-5V0ZM49 12H54V12H49ZM49 15V20H54V15H49ZM12 15V10V10V15ZM0 12H-5V12H0ZM12 0V-5V0ZM37 0V5C40.866 5 44 8.13401 44 12H49H54C54 2.61116 46.3888 -5 37 -5V0ZM49 12H44V15H49H54V12H49ZM49 15V10H12V15V20H49V15ZM12 15V10C2.61116 10 -5 17.6112 -5 27H0H5C5 23.134 8.13401 20 12 20V15ZM0 27H5V12H0H-5V27H0ZM0 12H5C5 8.13401 8.13401 5 12 5V0V-5C2.61116 -5 -5 2.61116 -5 12H0ZM12 0V5H37V0V-5H12V0Z" fill="currentColor" mask="url(#puppyone-mark-ear)"/>
  </g>
  </g>
</svg>
